<svg xmlns="http://www.w3.org/2000/svg" width="256" height="256" fill="#fbefff" xmlns:v="https://vecta.io/nano"><path d="M29.885 254.149a27.95 27.95 0 0 1-19.822-8.211c-10.947-10.947-10.947-28.697 0-39.647L206.293 10.06c10.95-10.947 28.695-10.947 39.647 0 10.947 10.947 10.947 28.697 0 39.647L49.709 245.938a27.96 27.96 0 0 1-19.825 8.211z"/><path d="M226.116 254.149a27.95 27.95 0 0 1-19.822-8.211L10.062 49.707C-.885 38.76-.885 21.009 10.062 10.06s28.697-10.947 39.647 0L245.94 206.291c10.947 10.947 10.947 28.697 0 39.647a27.96 27.96 0 0 1-19.825 8.211z"/></svg>